<svg xmlns="http://www.w3.org/2000/svg" width="39" height="28" viewBox="0 0 39 28">
    <path fill="#000" fill-rule="evenodd" d="M29.662 8.525c5.096 0 8.766 4.51 8.766 9.515 0 5.005-4.131 9.062-9.227 9.062s-9.227-3.15-9.227-8.155l4.613-.907c0 2.503 2.066 4.531 4.614 4.531s4.613-2.028 4.613-4.53c0-2.503-1.604-4.985-4.152-4.985h-2.03v-1.178c0-1.001 1.844-2.354 1.846-3.353h.184zM10.134 22.507c2.113 0 3.827-1.668 3.827-3.726 0-1.312-.5-2.577-1.404-3.55-2.014-2.17-5.452-2.339-7.68-.378a12.22 12.22 0 0 0-.223.202v2.92c0 2.503 2.083 4.532 4.653 4.532h.827zM9.307 9.099c5.14 0 9.307 4.03 9.307 9.002 0 4.971-4.167 9.001-9.307 9.001-5.14 0-9.307-4.03-9.307-9.001V1.756C1.026 1.755 2.415 0 3.444 0h1.21v10.304a9.507 9.507 0 0 1 4.653-1.205zm19.837-4.482c-2.555 0-4.625 2.024-4.625 4.52l-4.625-.904c0-4.992 4.141-8.135 9.25-8.135h2.038v1.168c0 .986-1.855 2.368-1.856 3.351h-.182z"/>
</svg>