<?xml version="1.0" encoding="UTF-8" standalone="no"?>
<svg
   width="40.509018"
   height="33.604752"
   viewBox="0 0 40.509019 33.604752"
   version="1.1"
   id="svg4"
   sodipodi:docname="beta3.svg"
   inkscape:version="1.1.2 (0a00cf5339, 2022-02-04)"
   xmlns:inkscape="http://www.inkscape.org/namespaces/inkscape"
   xmlns:sodipodi="http://sodipodi.sourceforge.net/DTD/sodipodi-0.dtd"
   xmlns="http://www.w3.org/2000/svg"
   xmlns:svg="http://www.w3.org/2000/svg">
  <defs
     id="defs8" />
  <sodipodi:namedview
     id="namedview6"
     pagecolor="#ffffff"
     bordercolor="#666666"
     borderopacity="1.0"
     inkscape:pageshadow="2"
     inkscape:pageopacity="0.0"
     inkscape:pagecheckerboard="0"
     showgrid="false"
     inkscape:zoom="15.553571"
     inkscape:cx="27.035592"
     inkscape:cy="17.070035"
     inkscape:window-width="1848"
     inkscape:window-height="1080"
     inkscape:window-x="0"
     inkscape:window-y="0"
     inkscape:window-maximized="1"
     inkscape:current-layer="svg4" />
  <path
     d="m 31.225016,4.519 c -2.555,0 -4.625,2.024 -4.625,4.5199997 l -4.625,-0.904 C 21.975016,3.143 26.116016,0 31.225016,0 h 2.038 v 1.168 c 0,0.986 -1.855,2.368 -1.856,3.351 z"
     id="path13944" />
  <path
     d="m 31.743016,8.4269997 c 5.096,0 8.766,4.5100003 8.766,9.5150003 0,5.005 -4.131,9.062 -9.227,9.062 -5.096,0 -9.227,-3.15 -9.227,-8.155 l 4.613,-0.907 c 0,2.503 2.066,4.531 4.614,4.531 2.548,0 4.613,-2.028 4.613,-4.53 0,-2.503 -1.604,-4.985 -4.152,-4.985 h -2.03 V 11.78 c 0,-1.001 1.844,-2.3540003 1.846,-3.3530003 z"
     id="path2" />
  <text
     xml:space="preserve"
     style="font-style:normal;font-variant:normal;font-weight:bold;font-stretch:normal;font-size:34.6667px;line-height:1;font-family:sans-serif;-inkscape-font-specification:'sans-serif, Bold';font-variant-ligatures:normal;font-variant-caps:normal;font-variant-numeric:normal;font-variant-east-asian:normal;letter-spacing:0px;word-spacing:0px;fill:#b80000;fill-opacity:1;stroke:none"
     x="-2.8776069"
     y="26.630785"
     id="text1090"><tspan
       sodipodi:role="line"
       id="tspan1088"
       x="-2.8776069"
       y="26.630785">β</tspan></text>
</svg>
